<?xml version="1.0" standalone="no"?><!DOCTYPE svg PUBLIC "-//W3C//DTD SVG 1.1//EN" "http://www.w3.org/Graphics/SVG/1.1/DTD/svg11.dtd"><svg t="1512034365155" class="icon" style="" viewBox="0 0 1024 1024" version="1.1" xmlns="http://www.w3.org/2000/svg" p-id="18998" xmlns:xlink="http://www.w3.org/1999/xlink" width="200" height="200"><defs><style type="text/css"></style></defs><path d="M569.716887 508.010265a76.140639 76.140639 0 0 1-72.37149-52.269364L381.588736 106.667866c-13.231982-39.913334 8.471793-83.151447 48.38193-96.383429A76.111867 76.111867 0 0 1 453.982604 6.393806a76.143836 76.143836 0 0 1 72.374687 52.272561l115.756661 349.069839c6.409791 19.334869 4.907246 40.009241-4.229503 58.212406s-24.817558 31.761231-44.152427 38.171022a76.131048 76.131048 0 0 1-24.015135 3.890631zM453.982604 51.150448c-3.353551 0-6.691118 0.543474-9.923187 1.617633-16.483232 5.466704-25.450545 23.327801-19.98384 39.817427l115.756661 349.069838a31.451132 31.451132 0 0 0 39.811033 19.983841 31.307271 31.307271 0 0 0 18.241528-15.770322 31.284893 31.284893 0 0 0 1.745509-24.047105l-115.756661-349.069838a31.457526 31.457526 0 0 0-29.891043-21.601474z" fill="#bfbfbf" p-id="18999"></path><path d="M110.468983 466.578402c-11.716649 0-23.35977-2.733352-34.13653-8.145709a75.750617 75.750617 0 0 1-38.171022-44.152427c-12.813187-38.640967 7.125897-80.398914 44.628766-95.034335L390.022166 87.438494a22.378321 22.378321 0 0 1 26.956286 35.728588L107.064281 357.004552a22.349549 22.349549 0 0 1-6.432168 3.375929c-16.486429 5.469901-25.453742 23.334195-19.987038 39.820624a31.29768 31.29768 0 0 0 15.767126 18.238332 31.29768 31.29768 0 0 0 24.047104 1.745509c2.314558-0.76406 4.667478-1.08375 7.177047-1.134901l388.228704 2.327346a22.378321 22.378321 0 0 1-0.131073 44.756642h-0.137467l-384.865562-2.308164a76.396391 76.396391 0 0 1-20.261971 2.752533z" fill="#bfbfbf" p-id="19000"></path><path d="M276.771877 653.712316a22.355943 22.355943 0 0 1-19.136661-10.747988L142.070369 453.055502a22.371927 22.371927 0 0 1 7.48395-30.747813 22.371927 22.371927 0 0 1 30.747813 7.48395l115.56165 189.908826a22.371927 22.371927 0 0 1-19.091905 34.011851z" fill="#bfbfbf" p-id="19001"></path><path d="M673.341301 1013.849833H72.387475a22.378321 22.378321 0 0 1-22.378321-22.378321V631.330798a22.378321 22.378321 0 0 1 22.378321-22.378321h600.953826a22.378321 22.378321 0 0 1 22.378321 22.378321v360.137517a22.378321 22.378321 0 0 1-22.378321 22.381518z m-578.575505-44.756642h556.197184v-315.380875H94.765796v315.380875z" fill="#bfbfbf" p-id="19002"></path><path d="M357.730249 653.712316a22.355943 22.355943 0 0 1-19.136662-10.747988l-115.564846-189.908826a22.371927 22.371927 0 0 1 7.48395-30.747813 22.36873 22.36873 0 0 1 30.747813 7.48395l115.564846 189.908826a22.371927 22.371927 0 0 1-19.095101 34.011851zM746.035678 328.024626c-23.139184 0-44.638357-10.402722-58.98286-28.535556-25.712691-32.502913-20.185246-79.865031 12.320864-105.577722a75.427729 75.427729 0 0 1 46.594861-16.214692c23.142381 0 44.641553 10.402722 58.98286 28.535557 12.455134 15.747944 18.036927 35.399307 15.706385 55.344784a74.679654 74.679654 0 0 1-28.027249 50.236134 75.430926 75.430926 0 0 1-46.594861 16.211495z m-0.067135-105.571328c-6.889326 0-13.401417 2.269801-18.829759 6.563242-13.148862 10.402722-15.386694 29.558565-4.983971 42.707427a30.271475 30.271475 0 0 0 23.880865 11.544017c6.889326 0 13.401417-2.269801 18.829759-6.563242a30.223521 30.223521 0 0 0 11.339415-20.319515 30.217127 30.217127 0 0 0-6.355444-22.387912 30.271475 30.271475 0 0 0-23.880865-11.544017z" fill="#bfbfbf" p-id="19003"></path><path d="M778.650482 235.768399c-4.373363 0-8.791483-1.278761-12.666129-3.944978L655.684805 155.92255a22.378321 22.378321 0 0 1-8.657213-25.172414l22.841872-72.3619a22.378321 22.378321 0 0 1 42.681852 13.474947l-17.8579 56.572395 96.661559 66.514764a22.375124 22.375124 0 0 1 5.751228 31.118654 22.355943 22.355943 0 0 1-18.455721 9.699403zM885.113746 474.049564c-0.578639 0-1.154082-0.009591-1.735918-0.025575-33.986276-0.946283-60.865836-29.366751-59.916356-63.34983 0.936693-33.615435 27.998476-59.945128 61.607517-59.945128 0.581836 0 1.160476 0.009591 1.742313 0.025575 33.986276 0.946283 60.865836 29.366751 59.916356 63.34983-0.933496 33.615435-27.998476 59.945128-61.613912 59.945128z m-0.04156-94.548406a32.707515 32.707515 0 0 0-32.848178 31.972227c-0.505111 18.129637 13.829802 33.286154 31.956242 33.791265l0.936693 0.012787a32.710711 32.710711 0 0 0 32.854572-31.972226c0.505111-18.129637-13.829802-33.286154-31.956242-33.791265l-0.943087-0.012788z" fill="#bfbfbf" p-id="19004"></path><path d="M930.215654 418.458618a14.392457 14.392457 0 0 1-13.852181-10.540189L884.26337 292.375961a14.392457 14.392457 0 0 1 6.122069-15.978121l57.291699-36.556586a14.386064 14.386064 0 0 1 15.479404 24.2581l-48.321189 30.830932 29.251663 105.290001a14.382867 14.382867 0 0 1-13.871362 18.238331zM921.059723 675.077219c-0.409204 0-0.81521-0.006394-1.22761-0.015985-23.970379-0.668153-42.928013-20.712735-42.263058-44.68631 0.677743-24.114239 20.434604-42.790547 44.68631-42.25986 23.967182 0.668153 42.924817 20.712735 42.259861 44.68631-0.661759 23.705036-19.74727 42.275845-43.455503 42.275845z m-0.028772-64.596622a20.994062 20.994062 0 0 0-21.086772 20.52092 21.128332 21.128332 0 0 0 20.514527 21.68779l0.601017 0.009591a20.990865 20.990865 0 0 0 21.083576-20.52092 21.125135 21.125135 0 0 0-20.51133-21.68779l-0.601018-0.009591z" fill="#bfbfbf" p-id="19005"></path><path d="M951.871475 637.098011a11.195554 11.195554 0 0 1-10.773564-8.196859l-21.930754-78.941126a11.185964 11.185964 0 0 1 4.760188-12.426362l39.139684-24.977403a11.185964 11.185964 0 1 1 12.039537 18.861728l-32.164042 20.524117 19.715301 70.96805a11.185964 11.185964 0 0 1-10.78635 14.187855z" fill="#bfbfbf" p-id="19006"></path></svg>